<svg viewBox="0 0 600 200" xmlns="http://www.w3.org/2000/svg">
  <defs>
    <linearGradient id="grad1" x1="0%" y1="0%" x2="100%" y2="100%">
      <stop offset="0%" style="stop-color:#00d4ff;stop-opacity:1" />
      <stop offset="100%" style="stop-color:#a855f7;stop-opacity:1" />
    </linearGradient>
    <linearGradient id="grad2" x1="0%" y1="0%" x2="100%" y2="0%">
      <stop offset="0%" style="stop-color:#00ff88;stop-opacity:1" />
      <stop offset="100%" style="stop-color:#00d4ff;stop-opacity:1" />
    </linearGradient>
  </defs>
  <rect width="600" height="200" rx="16" fill="#0a0e17"/>
  <g transform="translate(40, 40)">
    <rect x="0" y="30" width="100" height="70" rx="8" fill="none" stroke="url(#grad1)" stroke-width="2.5"/>
    <rect x="0" y="30" width="100" height="20" rx="8" fill="url(#grad1)" opacity="0.15"/>
    <circle cx="15" cy="40" r="3.5" fill="#ef4444"/>
    <circle cx="27" cy="40" r="3.5" fill="#f97316"/>
    <circle cx="39" cy="40" r="3.5" fill="#00ff88"/>
    <text x="14" y="72" font-family="monospace" font-size="13" fill="#00d4ff">$</text>
    <text x="28" y="72" font-family="monospace" font-size="13" fill="#e2e8f0">kubectl</text>
    <text x="14" y="90" font-family="monospace" font-size="11" fill="#00ff88">deploy ✓</text>
    <g transform="translate(50, 0)">
      <polygon points="0,28 -22,28 -15,10 -8,22 0,2 8,22 15,10 22,28" fill="url(#grad1)" opacity="0.9"/>
      <circle cx="-15" cy="8" r="3" fill="#00d4ff"/>
      <circle cx="0" cy="0" r="4" fill="#a855f7"/>
      <circle cx="15" cy="8" r="3" fill="#00d4ff"/>
    </g>
  </g>
  <g transform="translate(170, 70)">
    <text font-family="Inter, Arial, sans-serif" font-size="38" font-weight="800" fill="#e2e8f0">DevOps AI</text>
    <text y="45" font-family="Inter, Arial, sans-serif" font-size="38" font-weight="800" fill="url(#grad1)">Kingdom</text>
    <text y="72" font-family="Inter, Arial, sans-serif" font-size="13" font-weight="500" fill="#64748b" letter-spacing="3">SECURE · SCALE · AUTOMATE</text>
  </g>
  <line x1="480" y1="40" x2="560" y2="40" stroke="#1e293b" stroke-width="1"/>
  <line x1="500" y1="60" x2="570" y2="60" stroke="#1e293b" stroke-width="1"/>
  <line x1="490" y1="80" x2="550" y2="80" stroke="#1e293b" stroke-width="1"/>
  <circle cx="560" cy="40" r="3" fill="#00d4ff" opacity="0.6"/>
  <circle cx="570" cy="60" r="3" fill="#a855f7" opacity="0.6"/>
  <circle cx="550" cy="80" r="3" fill="#00ff88" opacity="0.6"/>
  <line x1="560" y1="40" x2="570" y2="60" stroke="#1e293b" stroke-width="1"/>
  <line x1="570" y1="60" x2="550" y2="80" stroke="#1e293b" stroke-width="1"/>
  <rect x="40" y="175" width="520" height="2" rx="1" fill="url(#grad1)" opacity="0.3"/>
</svg>
